<?xml version="1.0" standalone="no"?>
<!DOCTYPE svg PUBLIC "-//W3C//DTD SVG 20010904//EN"
 "http://www.w3.org/TR/2001/REC-SVG-20010904/DTD/svg10.dtd">
<svg version="1.0" xmlns="http://www.w3.org/2000/svg"
 width="96.000000pt" height="96.000000pt" viewBox="0 0 96.000000 96.000000"
 preserveAspectRatio="xMidYMid meet">
<metadata>
Created by potrace 1.14, written by Peter Selinger 2001-2017
</metadata>
<g transform="translate(0.000000,96.000000) scale(0.100000,-0.100000)"
fill="#000000" stroke="none">
<path d="M716 944 c-94 -34 -149 -102 -143 -175 2 -26 -1 -56 -8 -68 -11 -21
-11 -21 -34 9 -31 42 -98 66 -148 54 -21 -6 -23 -10 -17 -43 6 -32 10 -57 13
-98 1 -12 70 -68 93 -75 7 -3 7 -15 -2 -40 -9 -23 -18 -34 -27 -31 -7 3 -11 9
-8 13 11 18 -97 79 -142 80 -28 0 -28 2 0 -90 23 -75 23 -75 73 -95 47 -19 50
-22 43 -47 -13 -48 -19 -50 -52 -16 -41 41 -105 68 -161 70 -65 1 -69 -6 -36
-59 16 -25 37 -68 46 -95 18 -56 53 -78 119 -78 l36 0 -6 -58 c-8 -63 -8 -60
-6 -84 1 -13 10 -18 35 -18 l33 0 7 72 c3 39 8 73 9 75 2 1 27 -6 55 -17 81
-31 103 -27 159 28 27 27 63 57 81 67 18 11 32 23 32 27 0 4 -19 17 -42 29
-51 26 -142 28 -208 5 -24 -8 -45 -14 -47 -13 -1 2 3 22 10 44 l12 42 32 -20
c17 -11 41 -22 53 -24 25 -5 150 63 150 81 0 18 -88 55 -146 61 l-52 6 10 29
c9 24 15 28 32 23 11 -3 40 -9 63 -12 38 -5 46 -1 97 38 31 24 55 51 54 59 -5
25 -85 73 -123 74 -38 1 -50 16 -12 16 35 1 104 36 121 62 9 14 16 35 15 49 0
13 -2 53 -3 88 -1 36 -7 66 -12 67 -5 1 -27 -4 -48 -12z"/>
</g>
</svg>
